<svg xmlns="http://www.w3.org/2000/svg" xmlns:xlink="http://www.w3.org/1999/xlink" width="136" height="56" viewBox="0 0 136 56">
  <defs>
    <clipPath id="clip-path">
      <rect width="56" height="56" fill="none"/>
    </clipPath>
    <clipPath id="clip-path-2">
      <rect width="16" height="16" fill="none"/>
    </clipPath>
  </defs>
  <g id="buttons" transform="translate(-113 -476)">
    <g id="yes" transform="translate(113 476)" clip-path="url(#clip-path)">
      <circle id="Elipse_211" data-name="Elipse 211" cx="28" cy="28" r="28" fill="#448aff"/>
      <g id="Símbolo_148_2" data-name="Símbolo 148 – 2" transform="translate(20 20)" clip-path="url(#clip-path-2)">
        <path id="Checkbox" d="M6.9,12,1,6.1,2.4,4.7,6.9,9.1,15,1l1.4,1.4Z" transform="translate(-1 1)" fill="#fff"/>
        <rect id="Rectángulo_556" data-name="Rectángulo 556" width="16" height="16" fill="none"/>
      </g>
    </g>
    <g id="no" transform="translate(193 476)" clip-path="url(#clip-path)">
      <g id="Grupo_10633" data-name="Grupo 10633">
        <g id="Grupo_10634" data-name="Grupo 10634">
          <circle id="Elipse_212" data-name="Elipse 212" cx="28" cy="28" r="28" fill="#448aff"/>
        </g>
      </g>
      <g id="Símbolo_71_11" data-name="Símbolo 71 – 11" transform="translate(20 19.999)" clip-path="url(#clip-path-2)">
        <rect id="Rectángulo_1445" data-name="Rectángulo 1445" width="16" height="16" fill="none"/>
        <path id="Unión_3" data-name="Unión 3" d="M7.778,9.192,1.414,15.557,0,14.142,6.364,7.778,0,1.414,1.414,0,7.778,6.364,14.142,0l1.415,1.414L9.192,7.778l6.364,6.364-1.415,1.415Z" fill="#fff"/>
      </g>
    </g>
  </g>
</svg>
