<svg xmlns="http://www.w3.org/2000/svg" xmlns:xlink="http://www.w3.org/1999/xlink" width="50" height="50" viewBox="0 0 50 50">
  <defs>
    <clipPath id="clip-path">
      <rect id="Rectángulo_1479" data-name="Rectángulo 1479" width="50" height="50" transform="translate(1861 -664)" fill="#fff" stroke="#707070" stroke-width="1"/>
    </clipPath>
  </defs>
  <g id="Enmascarar_grupo_2" data-name="Enmascarar grupo 2" transform="translate(-1861 664)" clip-path="url(#clip-path)">
    <g id="mensajes" transform="translate(1860.91 -664)">
      <path id="Trazado_277" data-name="Trazado 277" d="M54.458,21.739a1.093,1.093,0,1,0,.98,1.087A1.038,1.038,0,0,0,54.458,21.739Zm0,0" transform="translate(-29.368 -10.87)" fill="#fff"/>
      <path id="Trazado_278" data-name="Trazado 278" d="M18.371,58.7a1.093,1.093,0,1,0-.98-1.087A1.038,1.038,0,0,0,18.371,58.7Zm0,0" transform="translate(-9.551 -28.261)" fill="#fff"/>
      <path id="Trazado_279" data-name="Trazado 279" d="M32.931,0A16.535,16.535,0,0,0,16.306,15.245C7.9,15.712,0,22.432,0,31.522A16.1,16.1,0,0,0,3.822,41.917a7.106,7.106,0,0,1-1.575,6.228,1.175,1.175,0,0,0-.212,1.185A.985.985,0,0,0,2.94,50a10.28,10.28,0,0,0,7.49-3.358,20.335,20.335,0,0,0,6.819,1.184A16.535,16.535,0,0,0,33.875,32.584a20.106,20.106,0,0,0,5.875-1.16,10.28,10.28,0,0,0,7.49,3.358.985.985,0,0,0,.905-.671,1.175,1.175,0,0,0-.212-1.185A7.106,7.106,0,0,1,46.359,26.7,16.1,16.1,0,0,0,50.181,16.3C50.181,6.86,41.67,0,32.931,0ZM17.25,45.652a18.077,18.077,0,0,1-6.715-1.283.915.915,0,0,0-1.086.276,8.716,8.716,0,0,1-4.4,2.895,9.657,9.657,0,0,0,.6-6.47,1.118,1.118,0,0,0-.24-.459,13.812,13.812,0,0,1-3.448-9.09c0-7.66,7-14.13,15.289-14.13,7.826,0,14.7,6.036,14.7,14.13,0,7.792-6.595,14.13-14.7,14.13ZM44.772,25.394a1.123,1.123,0,0,0-.24.459,9.657,9.657,0,0,0,.6,6.47,8.713,8.713,0,0,1-4.4-2.895.916.916,0,0,0-1.086-.276,17.66,17.66,0,0,1-5.774,1.256,16.1,16.1,0,0,0-5.3-10.842H41.36a1.093,1.093,0,0,0,0-2.174h-15.8a16.892,16.892,0,0,0-7.294-2.142A14.5,14.5,0,0,1,32.931,2.174c8.288,0,15.289,6.471,15.289,14.13a13.812,13.812,0,0,1-3.448,9.09Zm0,0" transform="translate(0 0)" fill="#fff"/>
      <path id="Trazado_280" data-name="Trazado 280" d="M39.416,56.522H27.067a1.093,1.093,0,0,0,0,2.174H39.416a1.093,1.093,0,0,0,0-2.174Zm0,0" transform="translate(-14.326 -28.261)" fill="#fff"/>
      <path id="Trazado_281" data-name="Trazado 281" d="M34.641,69.565H18.371a1.093,1.093,0,0,0,0,2.174h16.27a1.093,1.093,0,0,0,0-2.174Zm0,0" transform="translate(-9.551 -34.783)" fill="#fff"/>
      <path id="Trazado_282" data-name="Trazado 282" d="M75.5,21.739H63.154a1.093,1.093,0,0,0,0,2.174H75.5a1.093,1.093,0,0,0,0-2.174Zm0,0" transform="translate(-34.143 -10.87)" fill="#fff"/>
    </g>
  </g>
</svg>
