<?xml version="1.0"?>
<svg xmlns="http://www.w3.org/2000/svg" viewBox="0 0 64 64" width="512" height="512"><title>Project-Brief-idea-presentation-thinking</title><g id="Expand"><path d="M27,37H13a1,1,0,0,0-1,1v6a1,1,0,0,0,1,1H27a1,1,0,0,0,1-1V38A1,1,0,0,0,27,37Zm-1,6H14V39H26Z"/><path d="M8,53h3V51H8a2,2,0,0,1-2-2V30H4V49A4,4,0,0,0,8,53Z"/><rect x="36" y="2" width="19" height="2"/><rect x="42" y="51" width="13" height="2"/><path d="M57,34a3,3,0,0,0,0-6H56V12h1a1,1,0,0,0,1-1V7a1,1,0,0,0-1-1H32.479A10.987,10.987,0,0,0,15.521,6H7A1,1,0,0,0,6,7v4a1,1,0,0,0,1,1H8V48a1,1,0,0,0,1,1H31v3.586L23.586,60H14v2H50V60H40.414L33,52.586V49H55a1,1,0,0,0,1-1V45h3a1,1,0,0,0,1-1V38a1,1,0,0,0-1-1H56V34ZM26.414,60,31,55.414V60Zm11.172,0H33V55.414ZM58,31a1,1,0,0,1-1,1H42V30H57A1,1,0,0,1,58,31ZM39.236,32l-2-1,2-1H40v2ZM56,8v2H34.574a10.974,10.974,0,0,0-.788-2ZM24,4a9,9,0,0,1,3.6,17.246,1,1,0,0,0-.6.916V24H25V19.414l3.707-3.707-1.414-1.414L24,17.586l-3.293-3.293-1.414,1.414L23,19.414V24H21V22.162a1,1,0,0,0-.6-.916A9,9,0,0,1,24,4Zm4,22v2H20V26Zm-1.618,4-1,2H22.618l-1-2ZM8,8h6.214a10.974,10.974,0,0,0-.788,2H8ZM58,43H32V39h2v2h2V39h2v2h2V39h2v2h2V39h2v2h2V39h2v2h2V39h2v2h2V39h2Zm-4-6H31a1,1,0,0,0-1,1v6a1,1,0,0,0,1,1H54v2H10V12h3.051c-.03.33-.051.662-.051,1a11,11,0,0,0,6,9.8V24a1,1,0,0,0-1,1v4a1,1,0,0,0,1,1h.382l1.723,3.447A1,1,0,0,0,22,34h4a1,1,0,0,0,.895-.553L28.618,30H29a1,1,0,0,0,1-1V25a1,1,0,0,0-1-1V22.8A11,11,0,0,0,35,13c0-.338-.021-.67-.051-1H54V28H39a1,1,0,0,0-.447.105l-4,2a1,1,0,0,0,0,1.79l4,2A1,1,0,0,0,39,34H54Z"/><path d="M26.9,8.925a4.965,4.965,0,0,1,2.033,3.242l1.972-.334A7,7,0,0,0,22.833,6.1l.334,1.972A4.966,4.966,0,0,1,26.9,8.925Z"/><rect x="38" y="15" width="2" height="2"/><rect x="42" y="15" width="9" height="2"/><rect x="38" y="19" width="13" height="2"/><rect x="38" y="23" width="13" height="2"/><rect x="4" y="26" width="2" height="2"/><rect x="10" y="60" width="2" height="2"/></g></svg>
