<svg xmlns="http://www.w3.org/2000/svg" width="50" height="48.387" viewBox="0 0 50 48.387">
  <g id="Grupo_10481" data-name="Grupo 10481" transform="translate(-20 -292)">
    <g id="Grupo_10434" data-name="Grupo 10434">
      <g id="Expand" transform="translate(16 290)">
        <path id="Trazado_175" data-name="Trazado 175" d="M27,37H13a1,1,0,0,0-1,1v6a1,1,0,0,0,1,1H27a1,1,0,0,0,1-1V38A1,1,0,0,0,27,37Zm-1,6H14V39H26Z" transform="translate(0.067 -7.816)" fill="#fff"/>
        <path id="Trazado_176" data-name="Trazado 176" d="M8,53h3V51H8a2,2,0,0,1-2-2V30H4V49A4,4,0,0,0,8,53Z" transform="translate(0 -8.788)" fill="#fff"/>
        <rect id="Rectángulo_1451" data-name="Rectángulo 1451" width="19" height="2" transform="translate(30 2)" fill="#fff"/>
        <rect id="Rectángulo_1452" data-name="Rectángulo 1452" width="13" height="2" transform="translate(36 39.387)" fill="#fff"/>
        <path id="Trazado_177" data-name="Trazado 177" d="M51.333,27.806A2.552,2.552,0,0,0,54,25.387a2.552,2.552,0,0,0-2.667-2.419h-.889v-12.9h.889a.851.851,0,0,0,.889-.806V6.032a.851.851,0,0,0-.889-.806h-21.8a10.418,10.418,0,0,0-15.074,0H6.889A.851.851,0,0,0,6,6.032V9.258a.851.851,0,0,0,.889.806h.889V39.1a.851.851,0,0,0,.889.806H28.222V42.8l-6.59,5.979H13.111v1.613h32V48.774H36.59L30,42.8V39.9H49.556a.851.851,0,0,0,.889-.806V36.677h2.667A.851.851,0,0,0,54,35.871V31.032a.851.851,0,0,0-.889-.806H50.444V27.806ZM24.146,48.774l4.076-3.7v3.7Zm9.931,0H30v-3.7ZM52.222,25.387a.851.851,0,0,1-.889.806H38V24.581H51.333A.851.851,0,0,1,52.222,25.387Zm-16.679.806-1.778-.806,1.778-.806h.679v1.613Zm14.9-19.355V8.452H31.4a8.382,8.382,0,0,0-.7-1.613ZM22,3.613a7.855,7.855,0,0,1,7.826,5.775A7.12,7.12,0,0,1,25.2,17.521a.808.808,0,0,0-.533.739v1.482H22.889v-3.7l3.3-2.99-1.257-1.14L22,14.569l-2.927-2.656-1.257,1.14,3.3,2.99v3.7H19.333V18.26a.808.808,0,0,0-.533-.739,7.12,7.12,0,0,1-4.626-8.133A7.855,7.855,0,0,1,22,3.613Zm3.556,17.742v1.613H18.444V21.355Zm-1.438,3.226-.889,1.613H20.772l-.889-1.613ZM7.778,6.839H13.3a8.382,8.382,0,0,0-.7,1.613H7.778ZM52.222,35.065H29.111V31.839h1.778v1.613h1.778V31.839h1.778v1.613h1.778V31.839H38v1.613h1.778V31.839h1.778v1.613h1.778V31.839h1.778v1.613h1.778V31.839h1.778v1.613h1.778V31.839h1.778Zm-3.556-4.839H28.222a.851.851,0,0,0-.889.806v4.839a.851.851,0,0,0,.889.806H48.667V38.29H9.556V10.065h2.712a8.063,8.063,0,0,0-.045.806,8.817,8.817,0,0,0,5.335,7.9l0,.967a.851.851,0,0,0-.889.806v3.226a.851.851,0,0,0,.889.806h.34l1.532,2.78a.9.9,0,0,0,.8.446h3.556a.9.9,0,0,0,.8-.446l1.532-2.78h.34a.851.851,0,0,0,.889-.806V20.548a.851.851,0,0,0-.889-.806v-.968a8.816,8.816,0,0,0,5.333-7.9,8.065,8.065,0,0,0-.045-.806H48.667v12.9H35.333a.964.964,0,0,0-.4.085L31.38,24.665a.775.775,0,0,0,0,1.444l3.556,1.613a.964.964,0,0,0,.4.085H48.667Z" transform="translate(0)" fill="#fff"/>
        <path id="Trazado_178" data-name="Trazado 178" d="M26.9,8.925a4.965,4.965,0,0,1,2.033,3.242l1.972-.334A7,7,0,0,0,22.833,6.1l.334,1.972a4.966,4.966,0,0,1,3.733.853Z" transform="translate(-2.358)" fill="#fff"/>
        <rect id="Rectángulo_1453" data-name="Rectángulo 1453" width="2" height="2" transform="translate(34.222 12.397)" fill="#fff"/>
        <rect id="Rectángulo_1454" data-name="Rectángulo 1454" width="9" height="2" transform="translate(37.149 12.397)" fill="#fff"/>
        <rect id="Rectángulo_1455" data-name="Rectángulo 1455" width="13" height="2" transform="translate(33.006 15.596)" fill="#fff"/>
        <rect id="Rectángulo_1456" data-name="Rectángulo 1456" width="13" height="2" transform="translate(33.006 18.795)" fill="#fff"/>
        <rect id="Rectángulo_1457" data-name="Rectángulo 1457" width="2" height="2" transform="translate(4 21.195)" fill="#fff"/>
        <rect id="Rectángulo_1458" data-name="Rectángulo 1458" width="2" height="2" transform="translate(10 48.387)" fill="#fff"/>
      </g>
    </g>
  </g>
</svg>
