<svg xmlns="http://www.w3.org/2000/svg" xmlns:xlink="http://www.w3.org/1999/xlink" width="50" height="55" viewBox="0 0 50 55">
  <defs>
    <clipPath id="clip-path">
      <rect id="Rectángulo_1494" data-name="Rectángulo 1494" width="50" height="55" transform="translate(20 205)" fill="#fff"/>
    </clipPath>
  </defs>
  <g id="Grupo_10543" data-name="Grupo 10543" transform="translate(-20 -205)">
    <g id="Enmascarar_grupo_6" data-name="Enmascarar grupo 6" clip-path="url(#clip-path)">
      <g id="equipo" transform="translate(19.192 206.692)">
        <g id="Grupo_10528" data-name="Grupo 10528">
          <g id="Grupo_10527" data-name="Grupo 10527">
            <path id="Trazado_320" data-name="Trazado 320" d="M18.176,43.7a19.576,19.576,0,0,1-9.433-8.559.756.756,0,0,0-1.326.727,21.1,21.1,0,0,0,10.165,9.223.756.756,0,0,0,.594-1.391Z" fill="#fff"/>
          </g>
        </g>
        <g id="Grupo_10530" data-name="Grupo 10530">
          <g id="Grupo_10529" data-name="Grupo 10529">
            <path id="Trazado_321" data-name="Trazado 321" d="M43.9,34.843a.756.756,0,0,0-1.026.3A19.577,19.577,0,0,1,33.442,43.7a.756.756,0,1,0,.594,1.391A21.1,21.1,0,0,0,44.2,35.869.756.756,0,0,0,43.9,34.843Z" fill="#fff"/>
          </g>
        </g>
        <g id="Grupo_10532" data-name="Grupo 10532">
          <g id="Grupo_10531" data-name="Grupo 10531">
            <path id="Trazado_322" data-name="Trazado 322" d="M43.714,14.909a21.021,21.021,0,0,0-11.2-8.963.756.756,0,0,0-.484,1.433A19.506,19.506,0,0,1,42.423,15.7a.756.756,0,0,0,1.291-.787Z" fill="#fff"/>
          </g>
        </g>
        <g id="Grupo_10534" data-name="Grupo 10534">
          <g id="Grupo_10533" data-name="Grupo 10533">
            <path id="Trazado_323" data-name="Trazado 323" d="M20.06,6.419a.756.756,0,0,0-.958-.475A21.022,21.022,0,0,0,7.9,14.909a.756.756,0,1,0,1.291.787A19.506,19.506,0,0,1,19.585,7.378.756.756,0,0,0,20.06,6.419Z" fill="#fff"/>
          </g>
        </g>
        <g id="Grupo_10536" data-name="Grupo 10536">
          <g id="Grupo_10535" data-name="Grupo 10535">
            <path id="Trazado_324" data-name="Trazado 324" d="M30.1,10.139l-1.892-.946a.052.052,0,0,1-.029-.047V8A3.985,3.985,0,0,0,29.8,4.8V3.18A3.184,3.184,0,0,0,26.616,0H25A3.184,3.184,0,0,0,21.82,3.18V4.8A3.985,3.985,0,0,0,23.436,8V9.146a.052.052,0,0,1-.029.047l-1.892.946A2.359,2.359,0,0,0,20.2,12.261v2.234a.756.756,0,0,0,1.512,0V12.261a.855.855,0,0,1,.476-.769l1.313-.656,1.2,1.2a1.564,1.564,0,0,0,2.212,0l1.2-1.2,1.313.656a.855.855,0,0,1,.475.769v2.234a.756.756,0,1,0,1.512,0V12.261A2.36,2.36,0,0,0,30.1,10.139Zm-4.257.825a.052.052,0,0,1-.073,0L24.738,9.93a1.562,1.562,0,0,0,.21-.784V8.691a3.963,3.963,0,0,0,1.72,0v.455a1.561,1.561,0,0,0,.21.784Zm-.036-3.691A2.479,2.479,0,0,1,23.332,4.8V3.18h0A1.67,1.67,0,0,1,25,1.512h1.616A1.67,1.67,0,0,1,28.285,3.18V4.8A2.479,2.479,0,0,1,25.808,7.273Z" fill="#fff"/>
          </g>
        </g>
        <g id="Grupo_10538" data-name="Grupo 10538">
          <g id="Grupo_10537" data-name="Grupo 10537">
            <path id="Trazado_325" data-name="Trazado 325" d="M30.1,46.5l-1.892-.946a.052.052,0,0,1-.029-.047V44.367a3.985,3.985,0,0,0,1.616-3.2V39.546a3.184,3.184,0,0,0-3.18-3.18H25a3.184,3.184,0,0,0-3.181,3.18v1.616a3.985,3.985,0,0,0,1.616,3.2v1.145a.052.052,0,0,1-.029.047l-1.892.946A2.359,2.359,0,0,0,20.2,48.626V50.86a.756.756,0,0,0,1.512,0V48.626a.855.855,0,0,1,.476-.769L23.5,47.2l1.2,1.2a1.564,1.564,0,0,0,2.212,0l1.2-1.2,1.313.656a.855.855,0,0,1,.475.769V50.86a.756.756,0,0,0,1.512,0V48.626A2.359,2.359,0,0,0,30.1,46.5Zm-4.257.825a.052.052,0,0,1-.073,0L24.738,46.3a1.562,1.562,0,0,0,.21-.784v-.455a3.963,3.963,0,0,0,1.72,0v.455a1.561,1.561,0,0,0,.21.784Zm-.036-3.691a2.479,2.479,0,0,1-2.476-2.476V39.546h0A1.67,1.67,0,0,1,25,37.878h1.616a1.67,1.67,0,0,1,1.668,1.668v1.616A2.479,2.479,0,0,1,25.808,43.639Z" fill="#fff"/>
          </g>
        </g>
        <g id="Grupo_10540" data-name="Grupo 10540">
          <g id="Grupo_10539" data-name="Grupo 10539">
            <path id="Trazado_326" data-name="Trazado 326" d="M10.706,27.918l-1.892-.946a.052.052,0,0,1-.029-.046V25.78a3.985,3.985,0,0,0,1.616-3.2V20.959a3.184,3.184,0,0,0-3.181-3.181H5.6a3.184,3.184,0,0,0-3.18,3.181v1.616a3.985,3.985,0,0,0,1.616,3.2v1.145a.052.052,0,0,1-.029.046l-1.892.946A2.359,2.359,0,0,0,.808,30.039v2.234a.756.756,0,1,0,1.512,0V30.039A.855.855,0,0,1,2.8,29.27l1.313-.656,1.2,1.2a1.566,1.566,0,0,0,2.212,0l1.2-1.2,1.313.656a.856.856,0,0,1,.476.769v2.234a.756.756,0,1,0,1.512,0V30.039A2.36,2.36,0,0,0,10.706,27.918Zm-4.257.825a.052.052,0,0,1-.074,0L5.343,27.709a1.562,1.562,0,0,0,.21-.784V26.47a3.963,3.963,0,0,0,1.72,0v.455a1.562,1.562,0,0,0,.21.784Zm-.037-3.691a2.479,2.479,0,0,1-2.476-2.476V20.959h0A1.67,1.67,0,0,1,5.6,19.291H7.221a1.67,1.67,0,0,1,1.668,1.668v1.616A2.479,2.479,0,0,1,6.413,25.052Z" fill="#fff"/>
          </g>
        </g>
        <g id="Grupo_10542" data-name="Grupo 10542">
          <g id="Grupo_10541" data-name="Grupo 10541">
            <path id="Trazado_327" data-name="Trazado 327" d="M49.5,27.918,47.6,26.971a.052.052,0,0,1-.029-.046V25.78a3.985,3.985,0,0,0,1.616-3.2V20.959a3.184,3.184,0,0,0-3.18-3.181H44.395a3.184,3.184,0,0,0-3.181,3.181v1.616a3.985,3.985,0,0,0,1.616,3.2v1.145a.051.051,0,0,1-.029.046l-1.892.946A2.36,2.36,0,0,0,39.6,30.04v2.234a.756.756,0,0,0,1.512,0V30.04a.855.855,0,0,1,.476-.769l1.313-.656,1.2,1.2a1.566,1.566,0,0,0,2.212,0l1.2-1.2,1.313.656a.856.856,0,0,1,.476.769v2.234a.756.756,0,0,0,1.512,0V30.04A2.36,2.36,0,0,0,49.5,27.918Zm-4.257.825a.052.052,0,0,1-.074,0l-1.034-1.034a1.561,1.561,0,0,0,.21-.784V26.47a3.963,3.963,0,0,0,1.72,0v.455a1.563,1.563,0,0,0,.21.784ZM45.2,25.052a2.479,2.479,0,0,1-2.476-2.476V20.959h0A1.67,1.67,0,0,1,44.4,19.291h1.616a1.67,1.67,0,0,1,1.668,1.668v1.616A2.479,2.479,0,0,1,45.2,25.052Z" fill="#fff"/>
          </g>
        </g>
      </g>
    </g>
  </g>
</svg>
